<svg width="24" height="24" viewBox="0 0 24 24" fill="none" xmlns="http://www.w3.org/2000/svg">
<g id="sentiment_satisfied_alt_24px">
    <path id="icon/communication/sentiment_satisfied_alt_24px" fill-rule="evenodd" clip-rule="evenodd" d="M2 12C2 6.48 6.47 2 11.99 2C17.52 2 22 6.48 22 12C22 17.52 17.52 22 11.99 22C6.47 22 2 17.52 2 12ZM8.5 8C7.67157 8 7 8.67157 7 9.5C7 10.3284 7.67157 11 8.5 11C9.32843 11 10 10.3284 10 9.5C10 8.67157 9.32843 8 8.5 8ZM15.5 8C14.6716 8 14 8.67157 14 9.5C14 10.3284 14.6716 11 15.5 11C16.3284 11 17 10.3284 17 9.5C17 8.67157 16.3284 8 15.5 8ZM12 20C7.58 20 4 16.42 4 12C4 7.58 7.58 4 12 4C16.42 4 20 7.58 20 12C20 16.42 16.42 20 12 20ZM8.62003 17.1364C8.41003 17.4864 7.94003 17.5964 7.59003 17.3764C7.24003 17.1564 7.13003 16.6964 7.35003 16.3464C8.37003 14.7364 10.1 13.7664 12 13.7664C13.9 13.7664 15.63 14.7264 16.65 16.3564C16.87 16.7064 16.76 17.1664 16.41 17.3864C16.06 17.6064 15.6 17.4964 15.38 17.1464C14.64 15.9664 13.38 15.2664 12 15.2664C10.62 15.2664 9.36003 15.9664 8.62003 17.1364Z" fill="#F24B4B"/>
</g>
</svg>
